<svg xmlns="http://www.w3.org/2000/svg" width="21.633" height="24.724" viewBox="0 0 21.633 24.724"><defs><style>.a{fill:#495057;}</style></defs><path class="a" d="M25.113,10.549a21.888,21.888,0,0,0-2.1-2.407,21.9,21.9,0,0,0-2.407-2.1,3.851,3.851,0,0,0-2.2-1.019H9.521A1.934,1.934,0,0,0,7.589,6.95V24.72a1.934,1.934,0,0,0,1.932,1.932H24.2a1.934,1.934,0,0,0,1.932-1.932V12.745a3.851,3.851,0,0,0-1.019-2.2Zm-3.2-1.315A21.074,21.074,0,0,1,23.668,11.2H19.951V7.483a21.059,21.059,0,0,1,1.965,1.752ZM24.587,24.72a.392.392,0,0,1-.386.386H9.521a.392.392,0,0,1-.386-.386V6.95a.392.392,0,0,1,.386-.386h8.885v5.408a.773.773,0,0,0,.773.773h5.408ZM17.511,2.947a3.851,3.851,0,0,0-2.2-1.019H6.43A1.934,1.934,0,0,0,4.5,3.86V21.63a1.935,1.935,0,0,0,1.545,1.893V3.86a.392.392,0,0,1,.386-.386H18.186c-.233-.191-.459-.368-.675-.526Z" transform="translate(-4.499 -1.928)"/></svg>