<svg xmlns="http://www.w3.org/2000/svg" width="13.501" height="13.501" viewBox="0 0 13.501 13.501"><defs><style>.a{fill:#969696;}</style></defs><path class="a" d="M16.327,10.165a.629.629,0,0,0-.886,0l-3.1,3.106a.626.626,0,0,0-.019.863l3.051,3.06a.625.625,0,1,0,.886-.883l-2.59-2.629,2.658-2.632A.626.626,0,0,0,16.327,10.165Z" transform="translate(-8.106 -6.933)"/><path class="a" d="M10.125,3.375a6.75,6.75,0,1,0,6.75,6.75A6.749,6.749,0,0,0,10.125,3.375Zm4.037,10.788a5.7,5.7,0,1,1,1.675-4.037A5.663,5.663,0,0,1,14.163,14.163Z" transform="translate(-3.375 -3.375)"/></svg>