<svg xmlns="http://www.w3.org/2000/svg" width="253.04" height="30.788" viewBox="0 0 253.04 30.788"><defs><style>.a,.c{fill:#666;}.b{fill:#ccc;}.c{font-size:11px;}.c,.d{font-family:ae_Nice;}.d{fill:gray;font-size:6px;}</style></defs><g transform="translate(0 0.001)"><g transform="translate(0 0.261)"><path class="a" d="M270.014,104.556c2.755,9.9,5.334,19.174,5.9,22.661h.056c.843-4.78,3.9-14.276,6.429-22.71h8.042L279.9,135.03h-8.435L261.3,104.556Z" transform="translate(-236.333 -104.507)"/><path class="a" d="M381.419,113.215c0-2.923,0-6.129-.056-8.6h7.929l.225,2.91c3-2.235,10.136-1.041,10.136-1.041a13.613,13.613,0,0,0-4.039,5.659s-6.1-.412-6.1,4.138v18.807h-8.1Z" transform="translate(-300.267 -104.563)"/><path class="a" d="M332.726,104.612c-9.11,0-12.315,5.848-13.327,9.39h8.041c.787-1.743,1.743-3.093,5.117-3.093,3.993,0,5.849,3.543,5.849,7.2H319.174a16.993,16.993,0,0,0-.113,2.474c0,7.254,3.431,14.508,13.383,14.508a13.844,13.844,0,0,0,8.908-2.827v2.827h5.15V119.4C346.5,111.753,342.341,104.612,332.726,104.612ZM332.5,129.3c-3.936,0-5.286-2.868-5.342-6.242h11.078C337.9,126.654,336.324,129.3,332.5,129.3Z" transform="translate(-267.092 -104.563)"/><path class="a" d="M426.128,104.612c-9.11,0-12.315,5.848-13.327,9.39h8.041c.788-1.743,1.743-3.093,5.117-3.093,3.992,0,5.848,3.543,5.848,7.2H412.576a17.048,17.048,0,0,0-.112,2.474c0,7.254,3.43,14.508,13.383,14.508a13.842,13.842,0,0,0,8.908-2.827v2.827h5.15V119.4C439.9,111.753,435.744,104.612,426.128,104.612ZM425.9,129.3c-3.936,0-5.286-2.868-5.342-6.242h11.078C431.3,126.654,429.727,129.3,425.9,129.3Z" transform="translate(-316.828 -104.563)"/><g transform="translate(0 0.049)"><path class="a" d="M221.8,148.133c-3.992,0-5.848-3.543-5.848-7.2H207.9c.449,7.14,4.664,13.5,13.734,13.5,9.11,0,12.315-5.848,13.327-9.391H226.92C226.132,146.783,225.176,148.133,221.8,148.133Z" transform="translate(-207.899 -123.954)"/><path class="a" d="M222.7,104.612c-7.258,0-11.682,3.905-13.323,9.906l7.373,7.075h19.22a17.058,17.058,0,0,0,.112-2.474C236.088,111.865,232.657,104.612,222.7,104.612Zm-5.792,12.033c.338-3.6,1.912-6.242,5.735-6.242,3.936,0,5.286,2.868,5.342,6.242Z" transform="translate(-208.689 -104.612)"/></g></g><rect class="b" width="1.383" height="30.477" transform="translate(128.615 0.31)"/><text class="c" transform="translate(136.04 10.999)"><tspan x="0" y="0">EVARA GROUP, L.L.C.</tspan></text><text class="d" transform="translate(136.04 25.468)"><tspan x="0" y="0">A Multi-Discipline Consulting Firm</tspan></text></g></svg>