<svg xmlns="http://www.w3.org/2000/svg" width="24.3" height="23.3" viewBox="0 0 24.3 23.3"><defs><style>.a{fill:#495057;stroke:#495057;stroke-width:0.3px;}</style></defs><g transform="translate(0.15 -7.072)"><path class="a" d="M161.465,62.936h-1.3a.352.352,0,0,0,0,.7h1.3a.352.352,0,0,0,0-.7Z" transform="translate(-152.322 -53.102)"/><path class="a" d="M229.8,63.639h5.05a.352.352,0,1,0,0-.7H229.8a.352.352,0,1,0,0,.7Z" transform="translate(-218.694 -53.102)"/><path class="a" d="M161.465,105.989h-1.3a.352.352,0,0,0,0,.7h1.3a.352.352,0,0,0,0-.7Z" transform="translate(-152.322 -94.203)"/><path class="a" d="M229.8,106.692h5.05a.352.352,0,1,0,0-.7H229.8a.352.352,0,1,0,0,.7Z" transform="translate(-218.694 -94.203)"/><path class="a" d="M161.465,149.043h-1.3a.352.352,0,0,0,0,.7h1.3a.352.352,0,0,0,0-.7Z" transform="translate(-152.322 -135.268)"/><path class="a" d="M229.8,149.746h5.05a.352.352,0,1,0,0-.7H229.8a.352.352,0,1,0,0,.7Z" transform="translate(-218.694 -135.268)"/><path class="a" d="M166.722,367.375v-1.718a.609.609,0,0,0-.608-.608h-8.02a.609.609,0,0,0-.608.608v1.718a.609.609,0,0,0,.608.608h8.02A.609.609,0,0,0,166.722,367.375Zm-.7-.1H158.19v-1.528h7.829Z" transform="translate(-150.105 -341.319)"/><path class="a" d="M161.465,192.1h-1.3a.352.352,0,0,0,0,.7h1.3a.352.352,0,0,0,0-.7Z" transform="translate(-152.322 -176.332)"/><path class="a" d="M229.8,192.8h5.05a.352.352,0,1,0,0-.7H229.8a.352.352,0,1,0,0,.7Z" transform="translate(-218.694 -176.332)"/><path class="a" d="M161.465,235.149h-1.3a.352.352,0,0,0,0,.7h1.3a.352.352,0,0,0,0-.7Z" transform="translate(-152.322 -217.395)"/><path class="a" d="M229.8,235.852h5.05a.352.352,0,1,0,0-.7H229.8a.352.352,0,1,0,0,.7Z" transform="translate(-218.694 -217.395)"/><path class="a" d="M191.981,451.807a.352.352,0,0,0,0,.7h5.332a.352.352,0,0,0,0-.7Z" transform="translate(-182.647 -424.068)"/><path class="a" d="M23.648,20.216h-1.5l.9-6.027a.352.352,0,0,0-.7-.1l-.918,6.128H18.476V9.417l4.382.7a.091.091,0,0,1,.06.037.092.092,0,0,1,.016.072l-.37,2.469a.348.348,0,0,0,.3.394.358.358,0,0,0,.052,0,.35.35,0,0,0,.347-.3l.369-2.464a.771.771,0,0,0-.141-.584.792.792,0,0,0-.518-.315l-4.493-.714V8.006a.791.791,0,0,0-.8-.784H11.545c-.194,0-.194.693,0,.693h6.136a.092.092,0,0,1,.092.091v12.21H15.909a1.074,1.074,0,0,0-1,.685l-.349.921a.368.368,0,0,1-.343.235H9.784a.368.368,0,0,1-.343-.235L9.092,20.9a1.074,1.074,0,0,0-1-.685H6.226V8.006a.092.092,0,0,1,.092-.091h5.226c.194,0,.194-.693,0-.693H6.319a.791.791,0,0,0-.8.784v.708L1.03,9.428a.792.792,0,0,0-.518.315.768.768,0,0,0-.141.58l1.482,9.893H.352A.349.349,0,0,0,0,20.563v6.4a3.283,3.283,0,0,0,3.3,3.256H6.23c.194,0,.194-.693,0-.693H3.3A2.583,2.583,0,0,1,.7,26.966V20.909H8.09a.368.368,0,0,1,.343.235l.349.921a1.074,1.074,0,0,0,1,.685h4.432a1.074,1.074,0,0,0,1-.685l.349-.921a.368.368,0,0,1,.343-.235H23.3v6.057a2.583,2.583,0,0,1-2.6,2.562H6.23c-.194,0-.194.693,0,.693H20.7A3.283,3.283,0,0,0,24,26.966v-6.4A.349.349,0,0,0,23.648,20.216Zm-22.583-10a.088.088,0,0,1,.016-.068.091.091,0,0,1,.06-.037l4.382-.7v10.8H2.563Z" transform="translate(0)"/></g></svg>