<svg xmlns="http://www.w3.org/2000/svg" xmlns:xlink="http://www.w3.org/1999/xlink" width="390.832" height="202.763" viewBox="0 0 390.832 202.763">
  <defs>
    <clipPath id="clip-path">
      <path id="Path_614" data-name="Path 614" d="M466.45-386a16.382,16.382,0,0,1,16.382,16.382,16.382,16.382,0,0,1-16.382,16.382H372.838a16.382,16.382,0,0,1,16.382,16.382,16.382,16.382,0,0,1-16.382,16.382h51.487a16.382,16.382,0,0,1,16.382,16.382,16.382,16.382,0,0,1-16.382,16.382h-23.81c-11.408,0-20.656,7.335-20.656,16.382q0,9.048,14.042,16.382a16.382,16.382,0,0,1,16.382,16.382A16.382,16.382,0,0,1,393.9-222.178H199.654a16.382,16.382,0,0,1-16.382-16.382,16.382,16.382,0,0,1,16.382-16.382H108.382A16.382,16.382,0,0,1,92-271.325a16.382,16.382,0,0,1,16.382-16.382h93.613a16.382,16.382,0,0,0,16.382-16.382,16.382,16.382,0,0,0-16.382-16.382H143.487A16.382,16.382,0,0,1,127.1-336.853a16.382,16.382,0,0,1,16.382-16.382H237.1a16.382,16.382,0,0,1-16.382-16.382A16.382,16.382,0,0,1,237.1-386Zm0,65.529a16.382,16.382,0,0,1,16.382,16.382,16.382,16.382,0,0,1-16.382,16.382,16.382,16.382,0,0,1-16.382-16.382A16.382,16.382,0,0,1,466.45-320.471Z" transform="translate(-92 386)" fill="none"/>
    </clipPath>
    <linearGradient id="linear-gradient" x1="0.5" x2="0.5" y2="1" gradientUnits="objectBoundingBox">
      <stop offset="0" stop-color="#22c669" stop-opacity="0.012"/>
      <stop offset="1" stop-color="#a4b5ac" stop-opacity="0.149"/>
    </linearGradient>
    <clipPath id="clip-path-2">
      <path id="Path_616" data-name="Path 616" d="M210.4-228.2a78.4,78.4,0,0,0,78.4-78.4A78.4,78.4,0,0,0,210.4-385,78.4,78.4,0,0,0,132-306.6,78.4,78.4,0,0,0,210.4-228.2Z" transform="translate(-132 385)" fill="none"/>
    </clipPath>
    <clipPath id="clip-path-3">
      <path id="Path_619" data-name="Path 619" d="M188.456-255.148a71.868,71.868,0,0,0,12.563,1.184,62.018,62.018,0,0,0,62.018-62.018A62.018,62.018,0,0,0,201.018-378a61.812,61.812,0,0,0-24.752,5.136A62.263,62.263,0,0,0,145.778-344.2,61.755,61.755,0,0,0,139-315.982a61.791,61.791,0,0,0,5.622,25.837A62.088,62.088,0,0,0,154.643-274.8" transform="translate(-139 378)" fill="none"/>
    </clipPath>
    <clipPath id="clip-path-4">
      <path id="Path_627" data-name="Path 627" d="M199.54-318.46a14.268,14.268,0,0,1,20.178,0l25.943,25.943a14.268,14.268,0,0,1,0,20.178,14.268,14.268,0,0,1-20.178,0L199.54-298.282A14.268,14.268,0,0,1,199.54-318.46Z" transform="translate(-195.361 322.639)" fill="none"/>
    </clipPath>
    <clipPath id="clip-path-5">
      <rect id="Rectangle_281" data-name="Rectangle 281" width="177" height="178" transform="translate(-0.015 0.089)" fill="none"/>
    </clipPath>
    <clipPath id="clip-path-6">
      <path id="Path_626" data-name="Path 626" d="M194-263.152h60.848V-324H194Z" transform="translate(-194 324)" fill="none"/>
    </clipPath>
  </defs>
  <g id="Group_336" data-name="Group 336" transform="translate(-608.084 -356)">
    <g id="Group_320" data-name="Group 320" transform="translate(608.084 356)" clip-path="url(#clip-path)">
      <path id="Path_613" data-name="Path 613" d="M91-387H486.513v168.5H91Z" transform="translate(-93.34 384.66)" fill="url(#linear-gradient)"/>
    </g>
    <g id="Group_321" data-name="Group 321" transform="translate(701.696 358.34)" clip-path="url(#clip-path-2)">
      <path id="Path_615" data-name="Path 615" d="M131-386H292.482v161.482H131Z" transform="translate(-133.34 383.66)" fill="#fcfcfc"/>
    </g>
    <g id="Group_322" data-name="Group 322" transform="translate(701.696 358.34)">
      <path id="Path_617" data-name="Path 617" d="M78.4,156.8A78.4,78.4,0,1,0,0,78.4,78.4,78.4,0,0,0,78.4,156.8Z" fill="none" stroke="#e3e2e3" stroke-width="2.5"/>
    </g>
    <g id="Group_323" data-name="Group 323" transform="translate(718.078 374.722)" clip-path="url(#clip-path-3)">
      <path id="Path_618" data-name="Path 618" d="M138-379H266.717v128.717H138Z" transform="translate(-140.34 376.66)" fill="#fff"/>
    </g>
    <g id="Group_324" data-name="Group 324" transform="translate(718.078 374.722)">
      <path id="Path_620" data-name="Path 620" d="M49.456,122.852a71.852,71.852,0,0,0,12.563,1.184A62.1,62.1,0,1,0,15.643,103.2" fill="none" stroke="#e3e3e3" stroke-linecap="round" stroke-width="2.5"/>
    </g>
    <g id="Group_325" data-name="Group 325" transform="translate(741.008 484.892)">
      <path id="Path_621" data-name="Path 621" d="M0,0A61.954,61.954,0,0,0,16.858,9.764" fill="none" stroke="#e2e2e2" stroke-linecap="round" stroke-width="2.5"/>
    </g>
    <g id="Group_326" data-name="Group 326" transform="translate(736.801 393.445)">
      <path id="Path_622" data-name="Path 622" d="M44.466,0A44.417,44.417,0,0,0,0,44.466" fill="none" stroke="#e1e1e1" stroke-linecap="round" stroke-width="2.5"/>
    </g>
    <g id="Group_327" data-name="Group 327" transform="translate(844.455 498.759)">
      <path id="Path_623" data-name="Path 623" d="M0,0,14.042,14.042" fill="none" stroke="#e5e5e5" stroke-width="2.5"/>
    </g>
    <g id="Group_332" data-name="Group 332" transform="translate(849.98 504.284)" clip-path="url(#clip-path-4)">
      <g id="Group_331" data-name="Group 331" transform="translate(-61.049 -61.724)" style="mix-blend-mode: normal;isolation: isolate">
        <g id="Group_330" data-name="Group 330" transform="translate(0 0)" clip-path="url(#clip-path-5)">
          <g id="Group_329" data-name="Group 329" transform="translate(57.865 58.54)" clip-path="url(#clip-path-6)">
            <path id="Path_624" data-name="Path 624" d="M193-325h65.529v65.529H193Z" transform="translate(-195.34 322.66)" fill="#fcfcfc"/>
            <g id="Group_328" data-name="Group 328" transform="translate(3.185 3.185)">
              <path id="Path_625" data-name="Path 625" d="M4.54,4.54a14.268,14.268,0,0,1,20.178,0L50.661,30.483A14.268,14.268,0,0,1,30.483,50.661L4.54,24.718A14.268,14.268,0,0,1,4.54,4.54Z" transform="translate(-0.361 -0.361)" fill="none" stroke="#e6e6e6" stroke-width="5"/>
            </g>
          </g>
        </g>
      </g>
    </g>
    <g id="Group_333" data-name="Group 333" transform="translate(867.859 515.141)">
      <path id="Path_628" data-name="Path 628" d="M0,0,25.743,25.743" fill="none" stroke="#fff" stroke-linecap="round" stroke-width="2.5"/>
    </g>
    <g id="Group_334" data-name="Group 334" transform="translate(880.319 419.189)">
      <path id="Path_629" data-name="Path 629" d="M40.521,1H.324M56.9,1H51.7M25.72,19.2H6.586" transform="translate(-0.324 -1)" fill="none" stroke="#e2e2e2" stroke-linecap="round" stroke-linejoin="round" stroke-width="2.5"/>
    </g>
    <g id="Group_335" data-name="Group 335" transform="translate(620.438 468.335)">
      <path id="Path_630" data-name="Path 630" d="M63.985,1h-40.2M10.158,1H.279M74.928,21.542H55.794" transform="translate(-0.279 -1)" fill="none" stroke="#e2e2e2" stroke-linecap="round" stroke-linejoin="round" stroke-width="2.5"/>
    </g>
  </g>
</svg>
