<svg xmlns="http://www.w3.org/2000/svg" width="514.788" height="230.194" viewBox="0 0 514.788 230.194"><defs><style>.a{fill:#e5e5e5;}.b,.d{fill:#fff;}.b{stroke:#231f20;stroke-linecap:round;stroke-linejoin:round;stroke-width:1.03px;}.c{fill:#231f20;}.e{fill:#d1d3d4;}</style></defs><g transform="translate(-49.36 -82.879)"><path class="a" d="M133.375,253.98H49.36V220.763L128.9,96.56h37.967V223.839H195.69V253.98H166.865v40.188h-33.49Zm0-109.97h-.564l-49.4,79.829h49.961Z" transform="translate(0 9.695)"/><path class="a" d="M349.048,253.98h-84V220.763l79.539-124.2h37.967V223.839H411.3V253.98h-28.74v40.188H349.048Zm5.844-109.97h-.564l-49.4,79.829h49.961Z" transform="translate(152.853 9.695)"/><path class="b" d="M233.3,102.33a88.748,88.748,0,1,0,62.791,26.03A88.769,88.769,0,0,0,233.3,102.33Z" transform="translate(67.437 13.784)"/><ellipse class="c" cx="4.101" cy="6.1" rx="4.101" ry="6.1" transform="translate(343.166 169.903)"/><path class="c" d="M135.46,178.583l208.458-46.134L302.91,120.489S280.7,83.667,274.768,82.9,161.09,105.111,161.09,105.111l-6.835,51.875Z" transform="translate(61.016)"/><path class="d" d="M176.27,167.454s52.969-21.17,76.138,18.266" transform="translate(89.937 55.914)"/><path class="c" d="M252.792,186.959a.872.872,0,0,1-.752-.444c-22.537-38.325-74.549-18.095-75.062-17.89a.917.917,0,1,1-.666-1.709c.547-.205,53.943-21,77.249,18.642a.906.906,0,0,1-.308,1.213.922.922,0,0,1-.461.188Z" transform="translate(89.553 55.563)"/><path class="c" d="M170.633,234.745,147.07,197.5l103-17.616,7.074,35.694L267.6,182.7l52.7,10.406-10.713,41.64Z" transform="translate(69.244 68.742)"/><path class="d" d="M0,0H9.586V35.78A4.511,4.511,0,0,1,5.075,40.29H4.511A4.511,4.511,0,0,1,0,35.78Z" transform="matrix(0.991, -0.137, 0.137, 0.991, 371.86, 222.715)"/><path class="c" d="M247.831,205.821a5.382,5.382,0,0,1-5.314-4.631l-4.9-35.455a.854.854,0,0,1,.735-.957l9.483-1.316a.854.854,0,0,1,.632.171.8.8,0,0,1,.325.564l4.87,35.438a5.331,5.331,0,0,1-4.579,6.049l-.547.085A5.312,5.312,0,0,1,247.831,205.821Zm-8.407-39.47,4.784,34.6a3.674,3.674,0,0,0,4.118,3.127h.564A3.657,3.657,0,0,0,252,199.96l-4.784-34.6Z" transform="translate(133.404 57.102)"/><rect class="d" width="15.463" height="34.994" transform="matrix(0.991, -0.137, 0.137, 0.991, 364.567, 191.433)"/><path class="c" d="M238.983,183.18a.922.922,0,0,1-.513-.171.769.769,0,0,1-.325-.564l-4.8-34.686a.837.837,0,0,1,.154-.632.906.906,0,0,1,.564-.325l15.378-2.119a.837.837,0,0,1,.957.735l4.8,34.669a.854.854,0,0,1-.735.957l-15.378,2.119Zm-3.827-34.806,4.562,32.977,13.669-1.88L248.825,146.5Z" transform="translate(130.376 43.793)"/><rect class="d" width="15.463" height="60.863" rx="3.2" transform="matrix(0.991, -0.137, 0.137, 0.991, 372.692, 250.113)"/><path class="c" d="M251.644,242.152a6.322,6.322,0,0,1-6.254-5.451l-6.835-49.466a6.288,6.288,0,0,1,1.213-4.682,6.356,6.356,0,0,1,4.169-2.443l4.511-.615a6.305,6.305,0,0,1,7.108,5.382l6.835,49.551a6.322,6.322,0,0,1-5.382,7.108h0l-4.511.632Zm5.263-1.521Zm-7.586-59.5a3.946,3.946,0,0,0-.632,0l-4.511.615a4.562,4.562,0,0,0-3.041,1.794,4.494,4.494,0,0,0-.889,3.417l6.835,49.551a4.631,4.631,0,0,0,5.126,3.93l4.511-.632a4.613,4.613,0,0,0,3.93-5.126l-6.835-49.551a4.613,4.613,0,0,0-4.545-3.981Z" transform="translate(134.033 68.426)"/><circle class="d" cx="41.059" cy="41.059" r="41.059" transform="translate(329.94 140.48)"/><path class="c" d="M254.963,199.932a41.931,41.931,0,1,1,41.555-47.672h0a41.982,41.982,0,0,1-35.711,47.279A43.927,43.927,0,0,1,254.963,199.932Zm0-82.136a40.221,40.221,0,1,0,39.795,34.7h0a40.29,40.29,0,0,0-39.727-34.7Z" transform="translate(116.002 23.52)"/><circle class="d" cx="33.353" cy="33.353" r="33.353" transform="translate(337.647 148.186)"/><path class="c" d="M251.764,188.987a34.173,34.173,0,1,1,4.7-.325A33.594,33.594,0,0,1,251.764,188.987Zm0-66.638a33.8,33.8,0,0,0-4.528.308,32.465,32.465,0,1,0,4.528-.308Z" transform="translate(119.219 26.76)"/><path class="d" d="M282.139,199.292a24.9,24.9,0,0,0-8.372-6.835c-9.791-5.126-21.017-4.955-31.32-1.709-3.657,1.162-10.748,2.819-11.123,7.672a4.511,4.511,0,0,0,3.264,4.272,13.43,13.43,0,0,0,5.724.222,14.78,14.78,0,0,0-7.74,1.948c-2.2,1.555-3.417,4.955-1.606,7.023a5.793,5.793,0,0,0,2.99,1.709,13.669,13.669,0,0,0,7.6-.1,35.437,35.437,0,0,0-7.774,2.443c-1.5.666-3.178,1.845-3.007,3.417s1.709,2.29,3.11,2.768a32.036,32.036,0,0,0,9.141,1.709,18.009,18.009,0,0,0-7.433,3.2c-3.417,2.871-3.417,8.321,1.213,9.876a13.669,13.669,0,0,0,4.579.53c13.669,0,30.038-1.709,39.3-13.088a21.239,21.239,0,0,0,4.374-19.325A18.521,18.521,0,0,0,282.139,199.292Z" transform="translate(128.075 74.806)"/><path class="c" d="M241.673,238.567a14.4,14.4,0,0,1-4.75-.564,5.9,5.9,0,0,1-4.067-4.494,7.45,7.45,0,0,1,2.563-6.835,12.745,12.745,0,0,1,3.691-2.136,31.8,31.8,0,0,1-5.126-1.316c-2.273-.786-3.417-1.948-3.674-3.417s1.059-3.246,3.417-4.357l1.213-.513a9.036,9.036,0,0,1-.923-.222,6.442,6.442,0,0,1-3.417-1.948,4.716,4.716,0,0,1-1.008-3.691,6.834,6.834,0,0,1,2.768-4.562,8.339,8.339,0,0,1,1.709-.923,5.246,5.246,0,0,1-3.264-4.9c.393-4.989,6.561-6.835,10.628-8.082l1.094-.325c11.414-3.605,22.777-2.973,31.969,1.709a25.631,25.631,0,0,1,8.663,7.142,19.6,19.6,0,0,1,3.093,5.946,22.024,22.024,0,0,1-4.528,20.128c-9.688,11.841-26.467,13.379-40,13.4ZM240.049,215a33.731,33.731,0,0,0-5.536,1.931c-.8.359-2.631,1.333-2.495,2.6s1.435,1.709,2.529,2.068a30.943,30.943,0,0,0,8.9,1.709.837.837,0,0,1,.82.752.854.854,0,0,1-.632.923,17.769,17.769,0,0,0-7.108,3.024,5.656,5.656,0,0,0-2,5.229,4.169,4.169,0,0,0,2.939,3.2,12.3,12.3,0,0,0,4.289.478c13.174,0,29.457-1.469,38.684-12.764a20.333,20.333,0,0,0,4.238-18.539,17.907,17.907,0,0,0-2.836-5.416h0a23.716,23.716,0,0,0-8.082-6.664c-8.8-4.528-19.684-5.126-30.671-1.709l-1.111.342c-3.622,1.094-9.124,2.751-9.432,6.578a3.708,3.708,0,0,0,2.7,3.417,8.287,8.287,0,0,0,3.059.376c.8-.085,1.589-.137,2.341-.188a.888.888,0,0,1,.906.786.871.871,0,0,1-.769.923c-.769,0-1.572.171-2.392.188a10.508,10.508,0,0,0-4.938,1.606,5.126,5.126,0,0,0-2.068,3.417,3.059,3.059,0,0,0,.615,2.375,4.972,4.972,0,0,0,2.563,1.4,13.124,13.124,0,0,0,5.126.342c.683-.171,1.384-.325,2.067-.461a.854.854,0,0,1,.991.632.871.871,0,0,1-.581,1.025,13.093,13.093,0,0,1-2.119.427Z" transform="translate(127.687 74.471)"/><path class="d" d="M207.051,141s20.812,31.269,8.219,31.713-13.669-2.853-13.669-2.853" transform="translate(107.888 41.189)"/><path class="c" d="M213.393,173.994c-10.56,0-12.08-2.888-12.285-3.417a.906.906,0,0,1,.564-1.128.889.889,0,0,1,1.111.564h0s1.538,2.648,12.832,2.238a2.888,2.888,0,0,0,2.768-1.435c2.7-5.246-7.518-22.64-11.687-28.894a.889.889,0,0,1,1.469-.991c1.589,2.392,15.378,23.58,11.79,30.756a4.579,4.579,0,0,1-4.272,2.409Z" transform="translate(107.509 40.899)"/><ellipse class="e" cx="7.552" cy="12.866" rx="7.552" ry="12.866" transform="translate(365.344 167.631)"/><ellipse class="c" cx="5.758" cy="10.406" rx="5.758" ry="10.406" transform="translate(274.716 170.091)"/></g></svg>