<svg xmlns="http://www.w3.org/2000/svg" width="25" height="25" viewBox="0 0 25 25"><defs><style>.a{fill:#495057;}</style></defs><path class="a" d="M19.686,10.279H10.669a.39.39,0,0,0-.39.39v6.266a.39.39,0,0,0,.39.39h9.018a.39.39,0,0,0,.39-.39V10.669A.39.39,0,0,0,19.686,10.279Zm-.39,6.266H11.059V11.059H19.3Zm.39,1.53H10.669a.39.39,0,0,0-.39.39V30.188a.39.39,0,0,0,.39.39h9.018a.39.39,0,0,0,.39-.39V18.465A.39.39,0,0,0,19.686,18.075ZM19.3,29.8H11.059V18.855H19.3Zm10.967-8.576H21.246a.39.39,0,0,0-.39.39v8.576a.39.39,0,0,0,.39.39h9.018a.39.39,0,0,0,.39-.39V21.613A.39.39,0,0,0,30.263,21.223Zm-.39,8.576H21.635V22h8.238ZM29.62,12.577s-.008-.005-.01-.009a4.9,4.9,0,1,0-1.47,7.286h.007l.01-.009a4.88,4.88,0,0,0,1.47-7.25A.107.107,0,0,0,29.62,12.577Zm-.876.186-2.6,2.02V11.5a4.091,4.091,0,0,1,2.6,1.263ZM21.635,15.58A4.11,4.11,0,0,1,25.364,11.5V15.58c0,.006,0,.011,0,.016a.383.383,0,0,0,.045.175l2,3.572a4.08,4.08,0,0,1-1.661.356A4.123,4.123,0,0,1,21.635,15.58Zm6.46,3.383-1.837-3.28,2.962-2.3a4.086,4.086,0,0,1-1.128,5.583Zm-3.922,4.21a.39.39,0,0,1,.39-.39H28.7a.39.39,0,0,1,0,.78H24.563A.39.39,0,0,1,24.173,23.172Zm4.921,1.559a.39.39,0,0,1-.39.39H26.122a.39.39,0,0,1,0-.78H28.7a.39.39,0,0,1,.39.39ZM13.011,20.054a.39.39,0,0,1,.39-.39h3.306a.39.39,0,1,1,0,.78H13.4a.39.39,0,0,1-.39-.39Zm-1.144.147a.456.456,0,0,1-.031-.148.391.391,0,1,1,.67.273.3.3,0,0,1-.133.086.317.317,0,0,1-.148.031.366.366,0,0,1-.273-.117.356.356,0,0,1-.086-.125Zm1.144,1.412a.39.39,0,0,1,.39-.39h3.306a.39.39,0,1,1,0,.78H13.4a.39.39,0,0,1-.39-.39Zm-1.058.28a.432.432,0,0,1-.117-.281.456.456,0,0,1,.031-.148.356.356,0,0,1,.086-.125.39.39,0,0,1,.421-.086.3.3,0,0,1,.133.086.39.39,0,0,1,.109.273.374.374,0,0,1-.39.39.39.39,0,0,1-.273-.109Zm1.058,1.279a.39.39,0,0,1,.39-.39h3.306a.39.39,0,1,1,0,.78H13.4a.39.39,0,0,1-.39-.39Zm-1.144.147a.456.456,0,0,1-.031-.148.39.39,0,1,1,.78,0,.423.423,0,0,1-.109.281.373.373,0,0,1-.133.078.317.317,0,0,1-.148.031.39.39,0,0,1-.273-.109.483.483,0,0,1-.086-.133Zm-.029-11.091a.39.39,0,0,1,.39-.39h4.964a.39.39,0,0,1,0,.78H12.226a.39.39,0,0,1-.387-.39Zm0,1.559a.39.39,0,0,1,.39-.39h1.845a.39.39,0,1,1,0,.78H12.226A.39.39,0,0,1,11.838,13.787ZM16,27.093l1.82-2.308a.39.39,0,0,1,.613.483L16.34,27.918a.39.39,0,0,1-.584.033l-1.4-1.4-1.823,2.386a.39.39,0,0,1-.62-.474l2.1-2.741a.39.39,0,0,1,.285-.156.407.407,0,0,1,.3.115ZM31.017,7.966H9.915A1.949,1.949,0,0,0,7.966,9.915v21.1a1.949,1.949,0,0,0,1.949,1.949h21.1a1.949,1.949,0,0,0,1.949-1.949V9.915a1.949,1.949,0,0,0-1.949-1.949Zm1.169,23.051a1.169,1.169,0,0,1-1.169,1.169H9.915a1.169,1.169,0,0,1-1.169-1.169V9.915A1.169,1.169,0,0,1,9.915,8.746h21.1a1.169,1.169,0,0,1,1.169,1.169Z" transform="translate(-7.966 -7.966)"/></svg>