<svg xmlns="http://www.w3.org/2000/svg" width="26" height="26" viewBox="0 0 26 26"><defs><style>.a{fill:#495057;}</style></defs><g transform="translate(-1 -1)"><path class="a" d="M40.792,10.8V1H39.708v9.8a3.246,3.246,0,0,0,0,6.4V27h1.083V17.2a3.246,3.246,0,0,0,0-6.4Zm-.542,5.368A2.167,2.167,0,1,1,42.417,14,2.169,2.169,0,0,1,40.25,16.167Z" transform="translate(-16.5)"/><path class="a" d="M3.708,1V4.84a3.246,3.246,0,0,0,0,6.4V27H4.792V11.243a3.246,3.246,0,0,0,0-6.4V1ZM6.417,8.042A2.167,2.167,0,1,1,4.25,5.875,2.169,2.169,0,0,1,6.417,8.042Z"/><path class="a" d="M21.708,1V17.3a3.246,3.246,0,0,0,0,6.4V27h1.083V23.7a3.246,3.246,0,0,0,0-6.4V1Zm2.708,19.5a2.167,2.167,0,1,1-2.167-2.167A2.169,2.169,0,0,1,24.417,20.5Z" transform="translate(-8.25)"/></g></svg>