<svg xmlns="http://www.w3.org/2000/svg" width="22.39" height="21.165" viewBox="0 0 22.39 21.165">
  <g id="Group_272" data-name="Group 272" transform="translate(0 -1.8)">
    <path id="Path_592" data-name="Path 592" d="M15.693,7.664V24.107a1.4,1.4,0,0,1-1.4,1.4H2.364A1.374,1.374,0,0,1,1,24.107V7.664A1.366,1.366,0,0,1,2.364,6.3H14.294A1.4,1.4,0,0,1,15.693,7.664Z" transform="translate(-0.65 -2.926)" fill="#dee6e1"/>
    <path id="Path_593" data-name="Path 593" d="M19.027,3.36V4.689a.553.553,0,0,1-.56.56H12.66a.553.553,0,0,1-.56-.56V3.36a.553.553,0,0,1,.56-.56H18.5A.546.546,0,0,1,19.027,3.36Z" transform="translate(-7.867 -0.65)" fill="#1fb761"/>
    <circle id="Ellipse_5" data-name="Ellipse 5" cx="4.933" cy="4.933" r="4.933" transform="translate(12.174 12.68)" fill="#dfad37"/>
    <circle id="Ellipse_6" data-name="Ellipse 6" cx="3.463" cy="3.463" r="3.463" transform="translate(13.644 14.149)" fill="#dee5e1"/>
    <circle id="Ellipse_7" data-name="Ellipse 7" cx="0.77" cy="0.77" r="0.77" transform="translate(16.337 16.878)" fill="#dfe6e2"/>
    <rect id="Rectangle_227" data-name="Rectangle 227" width="1.994" height="1.994" transform="translate(2.239 14.464)" fill="#dfe6e2"/>
    <g id="Group_270" data-name="Group 270" transform="translate(2.239 18.522)">
      <rect id="Rectangle_228" data-name="Rectangle 228" width="1.994" height="1.994" fill="#dfad37"/>
    </g>
    <g id="Group_271" data-name="Group 271" transform="translate(0 1.8)">
      <path id="Path_594" data-name="Path 594" d="M5.75,20.747h6.437a.35.35,0,1,0,0-.7H5.75a.35.35,0,0,0,0,.7Zm0-1.959H16.665a.35.35,0,0,0,0-.7H5.75a.35.35,0,0,0,0,.7ZM8.234,14.8h5.912a.35.35,0,0,0,0-.7H8.234a.331.331,0,0,0-.35.35A.351.351,0,0,0,8.234,14.8ZM5.75,16.794H16.665a.35.35,0,0,0,0-.7H5.75a.35.35,0,0,0,0,.7Z" transform="translate(-3.511 -9.797)" fill="#2e293b"/>
      <path id="Path_595" data-name="Path 595" d="M20.5,13.59l.21-.28.21.175c.245.14.42.07.49-.07a.342.342,0,0,0-.07-.49L20.4,12.19a.35.35,0,0,0-.42.56l.21.175-.245.245a5.525,5.525,0,0,0-2.519-.84v-.77h.77a.35.35,0,1,0,0-.7H15.953a.35.35,0,1,0,0,.7h.77v.8a4.742,4.742,0,0,0-1.364.28V4.739a1.725,1.725,0,0,0-1.749-1.714H11.475V2.71a.926.926,0,0,0-.91-.91H4.793a.926.926,0,0,0-.91.91v.315H1.714A1.725,1.725,0,0,0,0,4.774V21.216a1.747,1.747,0,0,0,1.714,1.749H13.644a1.748,1.748,0,0,0,1.224-.49,5.249,5.249,0,0,0,2.239.49,5.361,5.361,0,0,0,5.283-5.353A5.262,5.262,0,0,0,20.5,13.59ZM4.583,2.71a.226.226,0,0,1,.21-.21h5.842a.226.226,0,0,1,.21.21V4.039a.226.226,0,0,1-.21.21H4.793a.226.226,0,0,1-.21-.21S4.583,2.71,4.583,2.71Zm9.061,19.521H1.714A1.023,1.023,0,0,1,.7,21.181V4.739A1.015,1.015,0,0,1,1.714,3.724H3.848v.315a.926.926,0,0,0,.91.91H10.6a.926.926,0,0,0,.91-.91V3.724h2.134a1.053,1.053,0,0,1,1.05,1.05V12.96c-.14.07-.315.175-.455.245l-.21-.28.21-.175a.35.35,0,0,0-.42-.56l-.945.735a.376.376,0,0,0-.07.49c.1.14.245.175.49.07l.21-.175.21.28a5.265,5.265,0,0,0,.525,8.466A1.29,1.29,0,0,1,13.644,22.231Zm3.463,0a4.583,4.583,0,0,1,0-9.166,4.546,4.546,0,0,1,4.583,4.548A4.629,4.629,0,0,1,17.107,22.231Z" transform="translate(0 -1.8)" fill="#2e293b"/>
      <path id="Path_596" data-name="Path 596" d="M41.813,36.1a3.813,3.813,0,1,0,3.813,3.813A3.822,3.822,0,0,0,41.813,36.1Zm0,6.927a3.114,3.114,0,1,1,3.114-3.114A3.1,3.1,0,0,1,41.813,43.027Z" transform="translate(-24.706 -24.101)" fill="#2e293b"/>
      <path id="Path_597" data-name="Path 597" d="M22.052,38.609l-.945.945a1.139,1.139,0,0,0-.49-.14A1.133,1.133,0,0,0,19.6,41.023l-.1.1a.346.346,0,0,0,.49.49l.1-.1a1.139,1.139,0,0,0,.49.14A1.133,1.133,0,0,0,21.6,40.044l.945-.945a.346.346,0,0,0-.49-.49Zm-1.434,2.309a.425.425,0,0,1-.42-.42.42.42,0,1,1,.84,0A.425.425,0,0,1,20.618,40.918ZM7.744,37H5.75a.331.331,0,0,0-.35.35v1.994a.331.331,0,0,0,.35.35H7.744a.331.331,0,0,0,.35-.35V37.35A.376.376,0,0,0,7.744,37Zm-.35,1.994H6.1V37.7H7.394Zm.35,2.064H5.75a.331.331,0,0,0-.35.35V43.4a.331.331,0,0,0,.35.35H7.744a.331.331,0,0,0,.35-.35V41.408A.376.376,0,0,0,7.744,41.058Zm-.35,1.994H6.1V41.758H7.394ZM9.353,37.42a.35.35,0,0,0,0,.7h1.609a.35.35,0,1,0,0-.7Zm4.233,1.154H9.353a.35.35,0,1,0,0,.7h4.233a.331.331,0,0,0,.35-.35A.351.351,0,0,0,13.586,38.574Zm-4.233,3.6h1.609a.35.35,0,0,0,0-.7H9.353a.35.35,0,0,0,0,.7Zm4.233.455H9.353a.35.35,0,0,0,0,.7h4.233a.331.331,0,0,0,.35-.35A.351.351,0,0,0,13.586,42.632Z" transform="translate(-3.511 -24.686)" fill="#2e293b"/>
    </g>
  </g>
</svg>
