<svg xmlns="http://www.w3.org/2000/svg" width="260" height="28.82" viewBox="0 0 260 28.82">
  <g id="Group_123" data-name="Group 123" transform="translate(-139 -1392)">
    <g id="Group_119" data-name="Group 119" transform="translate(139 1392)">
      <path id="Path_372" data-name="Path 372" d="M269.527,274.906c2.6,9.343,5.036,18.1,5.567,21.395h.053c.8-4.513,3.681-13.478,6.07-21.441h7.592l-9.946,28.817H270.9l-9.6-28.771Z" transform="translate(-237.729 -274.86)" fill="#f2f2f2"/>
      <path id="Path_373" data-name="Path 373" d="M381.416,283.087c0-2.76,0-5.786-.053-8.122h7.485l.212,2.747c2.828-2.11,9.57-.982,9.57-.982a12.848,12.848,0,0,0-3.813,5.343s-5.757-.389-5.757,3.907v17.756h-7.645Z" transform="translate(-304.799 -274.919)" fill="#f2f2f2"/>
      <path id="Path_374" data-name="Path 374" d="M331.962,274.965c-8.6,0-11.627,5.521-12.583,8.866h7.592c.743-1.645,1.646-2.92,4.831-2.92,3.769,0,5.522,3.345,5.522,6.8H319.167a16.039,16.039,0,0,0-.106,2.336c0,6.849,3.239,13.7,12.635,13.7a13.071,13.071,0,0,0,8.411-2.669v2.669h4.862V288.927C344.969,281.707,341.04,274.965,331.962,274.965Zm-.213,23.305c-3.716,0-4.99-2.707-5.043-5.893h10.459C336.846,295.775,335.359,298.27,331.749,298.27Z" transform="translate(-269.996 -274.919)" fill="#f2f2f2"/>
      <path id="Path_375" data-name="Path 375" d="M425.365,274.965c-8.6,0-11.626,5.521-12.583,8.866h7.592c.744-1.645,1.646-2.92,4.831-2.92,3.769,0,5.521,3.345,5.521,6.8H412.57a16.1,16.1,0,0,0-.106,2.336c0,6.849,3.238,13.7,12.635,13.7a13.069,13.069,0,0,0,8.41-2.669v2.669h4.862V288.927C438.371,281.707,434.443,274.965,425.365,274.965Zm-.212,23.305c-3.716,0-4.991-2.707-5.044-5.893h10.459C430.249,295.775,428.763,298.27,425.152,298.27Z" transform="translate(-322.172 -274.919)" fill="#f2f2f2"/>
      <g id="Group_118" data-name="Group 118" transform="translate(0 0.046)">
        <path id="Path_376" data-name="Path 376" d="M221.025,318.084c-3.769,0-5.521-3.345-5.521-6.8H207.9c.424,6.741,4.4,12.741,12.967,12.741,8.6,0,11.626-5.521,12.583-8.866h-7.592C225.113,316.81,224.211,318.084,221.025,318.084Z" transform="translate(-207.899 -295.256)" fill="#f2f2f2"/>
        <path id="Path_377" data-name="Path 377" d="M221.96,274.965c-6.852,0-11.029,3.687-12.578,9.353l6.961,6.68h18.146a16.11,16.11,0,0,0,.106-2.336C234.6,281.813,231.357,274.965,221.96,274.965Zm-5.468,11.361c.319-3.4,1.8-5.893,5.415-5.893,3.716,0,4.991,2.707,5.044,5.893Z" transform="translate(-208.727 -274.965)" fill="#f2f2f2"/>
      </g>
    </g>
    <rect id="Rectangle_125" data-name="Rectangle 125" width="1.306" height="28.774" transform="translate(260.427 1392.046)" fill="#f2f2f2"/>
    <g id="Group_120" data-name="Group 120" transform="translate(268.665 1394.83)">
      <path id="Path_378" data-name="Path 378" d="M501.669,281.645h5.764v1.039H502.9v2.7h4.342v1.038H502.9v3.3h4.641v1.038h-5.874Z" transform="translate(-501.669 -281.48)" fill="#f2f2f2"/>
      <path id="Path_379" data-name="Path 379" d="M520.493,290.762l-3.481-9.117H518.3l2.888,7.676,2.894-7.676h1.283l-3.475,9.117Z" transform="translate(-510.24 -281.48)" fill="#f2f2f2"/>
      <path id="Path_380" data-name="Path 380" d="M538.062,281.645h1.4l3.475,9.117h-1.282l-.831-2.339h-4.11l-.83,2.339h-1.3Zm.7,1.215-1.673,4.537h3.352Z" transform="translate(-520.054 -281.48)" fill="#f2f2f2"/>
      <path id="Path_381" data-name="Path 381" d="M560.846,286.487a1.821,1.821,0,0,1,.773.574,5.932,5.932,0,0,1,.754,1.209l1.252,2.491H562.3l-1.167-2.339a3.275,3.275,0,0,0-.876-1.215,1.977,1.977,0,0,0-1.157-.3h-1.344v3.853h-1.234v-9.117h2.784a3.538,3.538,0,0,1,2.333.653,2.444,2.444,0,0,1,.77,1.972,2.418,2.418,0,0,1-.4,1.429A2.062,2.062,0,0,1,560.846,286.487Zm-3.09-3.829V285.9h1.551a1.946,1.946,0,0,0,1.347-.412,1.552,1.552,0,0,0,.455-1.212,1.531,1.531,0,0,0-.455-1.206,1.963,1.963,0,0,0-1.347-.406Z" transform="translate(-532.311 -281.48)" fill="#f2f2f2"/>
      <path id="Path_382" data-name="Path 382" d="M575.983,281.645h1.4l3.475,9.117h-1.282l-.831-2.339h-4.11l-.831,2.339h-1.3Zm.7,1.215-1.673,4.537h3.352Z" transform="translate(-541.237 -281.48)" fill="#f2f2f2"/>
      <path id="Path_383" data-name="Path 383" d="M609,289.253V286.8h-2.015V285.79h3.236V289.7a5.4,5.4,0,0,1-1.575.767,6.355,6.355,0,0,1-1.838.259,4.433,4.433,0,0,1-3.344-1.249,5.626,5.626,0,0,1,0-6.961,4.43,4.43,0,0,1,3.344-1.249,6.392,6.392,0,0,1,1.694.22,5.459,5.459,0,0,1,1.481.647v1.313a5,5,0,0,0-1.453-.873,4.5,4.5,0,0,0-1.618-.293,3.205,3.205,0,0,0-2.512.934,5.026,5.026,0,0,0,0,5.563,3.205,3.205,0,0,0,2.512.934,5.437,5.437,0,0,0,1.167-.113A3.194,3.194,0,0,0,609,289.253Z" transform="translate(-557.861 -281.272)" fill="#f2f2f2"/>
      <path id="Path_384" data-name="Path 384" d="M629.728,286.487a1.815,1.815,0,0,1,.773.574,5.9,5.9,0,0,1,.754,1.209l1.252,2.491h-1.325l-1.166-2.339a3.269,3.269,0,0,0-.877-1.215,1.974,1.974,0,0,0-1.157-.3h-1.344v3.853H625.4v-9.117h2.784a3.539,3.539,0,0,1,2.333.653,2.445,2.445,0,0,1,.769,1.972,2.417,2.417,0,0,1-.4,1.429A2.061,2.061,0,0,1,629.728,286.487Zm-3.09-3.829V285.9h1.551a1.947,1.947,0,0,0,1.347-.412,1.553,1.553,0,0,0,.455-1.212,1.533,1.533,0,0,0-.455-1.206,1.963,1.963,0,0,0-1.347-.406Z" transform="translate(-570.79 -281.48)" fill="#f2f2f2"/>
      <path id="Path_385" data-name="Path 385" d="M648.127,281.272a3.908,3.908,0,0,1,3.065,1.285,5.74,5.74,0,0,1,0,6.888,4.311,4.311,0,0,1-6.14,0,5.732,5.732,0,0,1,0-6.891A3.923,3.923,0,0,1,648.127,281.272Zm0,1a2.577,2.577,0,0,0-2.134,1,5.1,5.1,0,0,0,0,5.453,2.768,2.768,0,0,0,4.262,0,5.132,5.132,0,0,0,0-5.453A2.561,2.561,0,0,0,648.127,282.273Z" transform="translate(-581.123 -281.272)" fill="#f2f2f2"/>
      <path id="Path_386" data-name="Path 386" d="M667.075,281.645h1.239v5.538a3.321,3.321,0,0,0,.531,2.11,2.615,2.615,0,0,0,3.438,0,3.323,3.323,0,0,0,.531-2.11v-5.538h1.24v5.691a3.722,3.722,0,0,1-.882,2.693,4.19,4.19,0,0,1-5.215,0,3.722,3.722,0,0,1-.882-2.693Z" transform="translate(-594.068 -281.48)" fill="#f2f2f2"/>
      <path id="Path_387" data-name="Path 387" d="M688.131,281.645h2.785a3.406,3.406,0,0,1,2.318.693,3.032,3.032,0,0,1,0,4.07,3.415,3.415,0,0,1-2.318.69h-1.551v3.664h-1.234Zm1.234,1.014v3.426h1.551a1.859,1.859,0,0,0,1.331-.446,1.941,1.941,0,0,0,0-2.534,1.861,1.861,0,0,0-1.331-.446Z" transform="translate(-605.83 -281.48)" fill="#f2f2f2"/>
      <path id="Path_388" data-name="Path 388" d="M705.123,298.787h1.288v1.05l-1,1.954h-.788l.5-1.954Z" transform="translate(-615.042 -291.056)" fill="#f2f2f2"/>
      <path id="Path_389" data-name="Path 389" d="M723.23,281.645h1.234v8.079H728.9v1.038H723.23Z" transform="translate(-625.437 -281.48)" fill="#f2f2f2"/>
      <path id="Path_390" data-name="Path 390" d="M739.264,298.787h1.289v1.551h-1.289Z" transform="translate(-634.393 -291.056)" fill="#f2f2f2"/>
      <path id="Path_391" data-name="Path 391" d="M748.021,281.645h1.234v8.079h4.439v1.038h-5.673Z" transform="translate(-639.285 -281.48)" fill="#f2f2f2"/>
      <path id="Path_392" data-name="Path 392" d="M764.055,298.787h1.289v1.551h-1.289Z" transform="translate(-648.242 -291.056)" fill="#f2f2f2"/>
      <path id="Path_393" data-name="Path 393" d="M778.975,282.139v1.3a4.375,4.375,0,0,0-1.328-.867,3.946,3.946,0,0,0-1.5-.287,3,3,0,0,0-2.394.956,5.006,5.006,0,0,0,0,5.52,3,3,0,0,0,2.394.956,3.937,3.937,0,0,0,1.5-.287,4.357,4.357,0,0,0,1.328-.867v1.288a5.027,5.027,0,0,1-1.371.66,5.234,5.234,0,0,1-1.529.22,4.258,4.258,0,0,1-3.261-1.267,5.629,5.629,0,0,1,0-6.925,4.259,4.259,0,0,1,3.261-1.267,5.351,5.351,0,0,1,1.542.217A4.872,4.872,0,0,1,778.975,282.139Z" transform="translate(-652.47 -281.272)" fill="#f2f2f2"/>
      <path id="Path_394" data-name="Path 394" d="M792.845,298.787h1.289v1.551h-1.289Z" transform="translate(-664.325 -291.056)" fill="#f2f2f2"/>
    </g>
    <g id="Group_121" data-name="Group 121" transform="translate(267.5 1411.636)">
      <path id="Path_395" data-name="Path 395" d="M501.227,319.9h.883l2.195,5.758h-.81l-.525-1.477h-2.6l-.524,1.477h-.821Zm.44.767-1.057,2.865h2.117Z" transform="translate(-499.029 -319.656)" fill="#f2f2f2"/>
      <path id="Path_396" data-name="Path 396" d="M518.574,319.9h1.161l1.469,3.918,1.477-3.918h1.161v5.758h-.76V320.6L521.6,324.55h-.783L519.33,320.6v5.056h-.756Z" transform="translate(-509.947 -319.656)" fill="#f2f2f2"/>
      <path id="Path_397" data-name="Path 397" d="M533.779,325.772v-2.614h.709v2.588a1.482,1.482,0,0,0,.239.92.853.853,0,0,0,.717.306,1.166,1.166,0,0,0,.908-.366,1.429,1.429,0,0,0,.333-1v-2.449h.71v4.319h-.71v-.663a1.749,1.749,0,0,1-.6.584,1.6,1.6,0,0,1-.793.191,1.386,1.386,0,0,1-1.13-.463A2.067,2.067,0,0,1,533.779,325.772Z" transform="translate(-518.441 -321.476)" fill="#f2f2f2"/>
      <path id="Path_398" data-name="Path 398" d="M545.286,319.348H546v6h-.71Z" transform="translate(-524.869 -319.348)" fill="#f2f2f2"/>
      <path id="Path_399" data-name="Path 399" d="M550.286,320.379v1.227h1.461v.551h-1.461V324.5a1.055,1.055,0,0,0,.145.679.829.829,0,0,0,.588.151h.729v.594h-.729a1.615,1.615,0,0,1-1.133-.307,1.552,1.552,0,0,1-.312-1.117v-2.345h-.521v-.551h.521v-1.227Z" transform="translate(-526.973 -319.924)" fill="#f2f2f2"/>
      <path id="Path_400" data-name="Path 400" d="M557.274,319.348h.709v.9h-.709Zm0,1.682h.709v4.319h-.709Z" transform="translate(-531.566 -319.348)" fill="#f2f2f2"/>
      <path id="Path_401" data-name="Path 401" d="M561.433,327.326h2.078v.632h-2.078Z" transform="translate(-533.889 -323.805)" fill="#f2f2f2"/>
      <path id="Path_402" data-name="Path 402" d="M568.772,319.9h1.6a3.628,3.628,0,0,1,2.456.7,3.425,3.425,0,0,1,0,4.364,3.627,3.627,0,0,1-2.452.7h-1.6Zm.779.64v4.478h.941a2.424,2.424,0,0,0,1.745-.54,2.887,2.887,0,0,0,0-3.4,2.428,2.428,0,0,0-1.745-.538Z" transform="translate(-537.989 -319.656)" fill="#f2f2f2"/>
      <path id="Path_403" data-name="Path 403" d="M582.482,319.348h.709v.9h-.709Zm0,1.682h.709v4.319h-.709Z" transform="translate(-545.647 -319.348)" fill="#f2f2f2"/>
      <path id="Path_404" data-name="Path 404" d="M589.807,323.153v.671a2.8,2.8,0,0,0-.625-.231,2.906,2.906,0,0,0-.671-.077,1.548,1.548,0,0,0-.793.162.534.534,0,0,0-.264.486.457.457,0,0,0,.189.388,2.226,2.226,0,0,0,.76.268l.243.054a2.305,2.305,0,0,1,1.074.457,1.068,1.068,0,0,1,.318.824,1.12,1.12,0,0,1-.476.952,2.167,2.167,0,0,1-1.31.351,4.1,4.1,0,0,1-.723-.067,5.948,5.948,0,0,1-.792-.2v-.733a3.814,3.814,0,0,0,.775.307,2.9,2.9,0,0,0,.756.1,1.438,1.438,0,0,0,.772-.172.541.541,0,0,0,.27-.483.532.532,0,0,0-.2-.444,2.363,2.363,0,0,0-.854-.3l-.247-.058a1.91,1.91,0,0,1-.952-.426,1.053,1.053,0,0,1-.293-.789,1.117,1.117,0,0,1,.432-.941,1.978,1.978,0,0,1,1.227-.332,4.47,4.47,0,0,1,.74.058A3.132,3.132,0,0,1,589.807,323.153Z" transform="translate(-548.024 -321.344)" fill="#f2f2f2"/>
      <path id="Path_405" data-name="Path 405" d="M599.494,323.192v.663a2.755,2.755,0,0,0-.6-.249,2.288,2.288,0,0,0-.611-.083,1.347,1.347,0,0,0-1.072.438,2.166,2.166,0,0,0,0,2.456,1.347,1.347,0,0,0,1.072.438,2.291,2.291,0,0,0,.611-.083,2.755,2.755,0,0,0,.6-.249v.656a2.9,2.9,0,0,1-.615.208,3.13,3.13,0,0,1-.677.07,2.023,2.023,0,0,1-1.551-.613,2.669,2.669,0,0,1,.006-3.317,2.1,2.1,0,0,1,1.59-.606,3.02,3.02,0,0,1,.64.068A2.889,2.889,0,0,1,599.494,323.192Z" transform="translate(-553.242 -321.344)" fill="#f2f2f2"/>
      <path id="Path_406" data-name="Path 406" d="M606.615,319.348h.71v.9h-.71Zm0,1.682h.71v4.319h-.71Z" transform="translate(-559.128 -319.348)" fill="#f2f2f2"/>
      <path id="Path_407" data-name="Path 407" d="M612.239,326.7v2.291h-.713v-5.962h.713v.655a1.479,1.479,0,0,1,.565-.573,1.677,1.677,0,0,1,.816-.187,1.553,1.553,0,0,1,1.278.625,2.993,2.993,0,0,1,0,3.286,1.553,1.553,0,0,1-1.278.624,1.678,1.678,0,0,1-.816-.187A1.478,1.478,0,0,1,612.239,326.7Zm2.415-1.508a2.063,2.063,0,0,0-.323-1.228,1.1,1.1,0,0,0-1.77,0,2.5,2.5,0,0,0,0,2.456,1.1,1.1,0,0,0,1.77,0A2.063,2.063,0,0,0,614.654,325.189Z" transform="translate(-561.872 -321.344)" fill="#f2f2f2"/>
      <path id="Path_408" data-name="Path 408" d="M622.946,319.348h.71v6h-.71Z" transform="translate(-568.251 -319.348)" fill="#f2f2f2"/>
      <path id="Path_409" data-name="Path 409" d="M627.918,319.348h.71v.9h-.71Zm0,1.682h.71v4.319h-.71Z" transform="translate(-571.029 -319.348)" fill="#f2f2f2"/>
      <path id="Path_410" data-name="Path 410" d="M636.446,324.738v2.607h-.71v-2.584a1.47,1.47,0,0,0-.239-.918.856.856,0,0,0-.717-.3,1.161,1.161,0,0,0-.907.366,1.434,1.434,0,0,0-.332,1v2.441h-.714v-4.319h.714v.671a1.725,1.725,0,0,1,.6-.582,1.607,1.607,0,0,1,.8-.193,1.378,1.378,0,0,1,1.126.461A2.078,2.078,0,0,1,636.446,324.738Z" transform="translate(-573.771 -321.344)" fill="#f2f2f2"/>
      <path id="Path_411" data-name="Path 411" d="M647.534,325.008v.347h-3.263a1.641,1.641,0,0,0,.441,1.116,1.515,1.515,0,0,0,1.1.384,3.136,3.136,0,0,0,.793-.1,3.524,3.524,0,0,0,.762-.3v.671a4.266,4.266,0,0,1-.784.247,3.916,3.916,0,0,1-.813.085,2.079,2.079,0,0,1-2.241-2.229,2.393,2.393,0,0,1,.573-1.684,2,2,0,0,1,1.544-.623,1.765,1.765,0,0,1,1.379.561A2.19,2.19,0,0,1,647.534,325.008Zm-.71-.208a1.347,1.347,0,0,0-.326-.93,1.088,1.088,0,0,0-.843-.347,1.33,1.33,0,0,0-.95.335,1.414,1.414,0,0,0-.411.945Z" transform="translate(-579.75 -321.344)" fill="#f2f2f2"/>
      <path id="Path_412" data-name="Path 412" d="M664.891,320.211v.821a2.762,2.762,0,0,0-.839-.547,2.485,2.485,0,0,0-.947-.181,1.894,1.894,0,0,0-1.512.6,3.159,3.159,0,0,0,0,3.486,1.894,1.894,0,0,0,1.512.6,2.484,2.484,0,0,0,.947-.181,2.763,2.763,0,0,0,.839-.548v.814a3.168,3.168,0,0,1-.866.416,3.3,3.3,0,0,1-.966.139,2.689,2.689,0,0,1-2.06-.8,3.555,3.555,0,0,1,0-4.373,2.689,2.689,0,0,1,2.06-.8,3.371,3.371,0,0,1,.974.137A3.074,3.074,0,0,1,664.891,320.211Z" transform="translate(-589.088 -319.524)" fill="#f2f2f2"/>
      <path id="Path_413" data-name="Path 413" d="M674.706,322.921a1.834,1.834,0,0,1,1.454.6,2.888,2.888,0,0,1,0,3.33,2.056,2.056,0,0,1-2.91,0,2.9,2.9,0,0,1,0-3.33A1.834,1.834,0,0,1,674.706,322.921Zm0,.6a1.067,1.067,0,0,0-.9.445,2.419,2.419,0,0,0,0,2.441,1.134,1.134,0,0,0,1.8,0,2.4,2.4,0,0,0,0-2.436A1.058,1.058,0,0,0,674.706,323.523Z" transform="translate(-596.058 -321.344)" fill="#f2f2f2"/>
      <path id="Path_414" data-name="Path 414" d="M687.928,324.738v2.607h-.709v-2.584a1.473,1.473,0,0,0-.239-.918.857.857,0,0,0-.717-.3,1.16,1.16,0,0,0-.907.366,1.433,1.433,0,0,0-.332,1v2.441h-.713v-4.319h.713v.671a1.732,1.732,0,0,1,.6-.582,1.608,1.608,0,0,1,.8-.193,1.378,1.378,0,0,1,1.126.461A2.081,2.081,0,0,1,687.928,324.738Z" transform="translate(-602.53 -321.344)" fill="#f2f2f2"/>
      <path id="Path_415" data-name="Path 415" d="M698.066,323.153v.671a2.8,2.8,0,0,0-.625-.231,2.9,2.9,0,0,0-.671-.077,1.547,1.547,0,0,0-.793.162.534.534,0,0,0-.264.486.457.457,0,0,0,.189.388,2.224,2.224,0,0,0,.76.268l.243.054a2.3,2.3,0,0,1,1.074.457,1.068,1.068,0,0,1,.318.824,1.121,1.121,0,0,1-.476.952,2.167,2.167,0,0,1-1.31.351,4.091,4.091,0,0,1-.723-.067,5.966,5.966,0,0,1-.793-.2v-.733a3.825,3.825,0,0,0,.775.307,2.9,2.9,0,0,0,.756.1,1.438,1.438,0,0,0,.771-.172.542.542,0,0,0,.27-.483.531.531,0,0,0-.195-.444,2.363,2.363,0,0,0-.854-.3l-.246-.058a1.91,1.91,0,0,1-.953-.426,1.052,1.052,0,0,1-.293-.789,1.117,1.117,0,0,1,.432-.941,1.977,1.977,0,0,1,1.226-.332,4.471,4.471,0,0,1,.741.058A3.121,3.121,0,0,1,698.066,323.153Z" transform="translate(-608.499 -321.344)" fill="#f2f2f2"/>
      <path id="Path_416" data-name="Path 416" d="M704.87,325.772v-2.614h.71v2.588a1.479,1.479,0,0,0,.239.92.853.853,0,0,0,.717.306,1.165,1.165,0,0,0,.908-.366,1.427,1.427,0,0,0,.334-1v-2.449h.71v4.319h-.71v-.663a1.753,1.753,0,0,1-.6.584,1.6,1.6,0,0,1-.793.191,1.387,1.387,0,0,1-1.13-.463A2.067,2.067,0,0,1,704.87,325.772Z" transform="translate(-614.015 -321.476)" fill="#f2f2f2"/>
      <path id="Path_417" data-name="Path 417" d="M716.377,319.348h.71v6h-.71Z" transform="translate(-620.443 -319.348)" fill="#f2f2f2"/>
      <path id="Path_418" data-name="Path 418" d="M721.378,320.379v1.227h1.461v.551h-1.461V324.5a1.057,1.057,0,0,0,.145.679.829.829,0,0,0,.588.151h.729v.594h-.729a1.617,1.617,0,0,1-1.134-.307,1.553,1.553,0,0,1-.312-1.117v-2.345h-.52v-.551h.52v-1.227Z" transform="translate(-622.547 -319.924)" fill="#f2f2f2"/>
      <path id="Path_419" data-name="Path 419" d="M728.365,319.348h.71v.9h-.71Zm0,1.682h.71v4.319h-.71Z" transform="translate(-627.14 -319.348)" fill="#f2f2f2"/>
      <path id="Path_420" data-name="Path 420" d="M736.894,324.738v2.607h-.71v-2.584a1.469,1.469,0,0,0-.239-.918.856.856,0,0,0-.717-.3,1.16,1.16,0,0,0-.906.366,1.433,1.433,0,0,0-.332,1v2.441h-.713v-4.319h.713v.671a1.731,1.731,0,0,1,.6-.582,1.608,1.608,0,0,1,.8-.193,1.379,1.379,0,0,1,1.126.461A2.08,2.08,0,0,1,736.894,324.738Z" transform="translate(-629.883 -321.344)" fill="#f2f2f2"/>
      <path id="Path_421" data-name="Path 421" d="M747.84,326.809a2.374,2.374,0,0,1-.49,1.641,1.931,1.931,0,0,1-1.5.538,4.275,4.275,0,0,1-.706-.056,3.525,3.525,0,0,1-.644-.171v-.691a2.8,2.8,0,0,0,.617.251,2.412,2.412,0,0,0,.621.081,1.378,1.378,0,0,0,1.045-.365,1.542,1.542,0,0,0,.347-1.1v-.351a1.466,1.466,0,0,1-.563.571,1.683,1.683,0,0,1-.821.189,1.562,1.562,0,0,1-1.281-.606,2.9,2.9,0,0,1,0-3.213,1.563,1.563,0,0,1,1.281-.606,1.683,1.683,0,0,1,.821.189,1.462,1.462,0,0,1,.563.571v-.655h.71Zm-.71-1.674a1.963,1.963,0,0,0-.318-1.2,1.148,1.148,0,0,0-1.782,0,2.4,2.4,0,0,0,0,2.387,1.148,1.148,0,0,0,1.782,0A1.953,1.953,0,0,0,747.131,325.135Z" transform="translate(-635.863 -321.344)" fill="#f2f2f2"/>
      <path id="Path_422" data-name="Path 422" d="M761.795,319.9H765.1v.655h-2.53v1.7h2.283v.656h-2.283v2.75h-.779Z" transform="translate(-645.814 -319.656)" fill="#f2f2f2"/>
      <path id="Path_423" data-name="Path 423" d="M770.717,319.348h.709v.9h-.709Zm0,1.682h.709v4.319h-.709Z" transform="translate(-650.798 -319.348)" fill="#f2f2f2"/>
      <path id="Path_424" data-name="Path 424" d="M778.157,323.689a.952.952,0,0,0-.26-.1,1.361,1.361,0,0,0-.311-.033,1.127,1.127,0,0,0-.923.392,1.725,1.725,0,0,0-.323,1.124v2.275h-.713v-4.319h.713v.671a1.455,1.455,0,0,1,.583-.584,1.834,1.834,0,0,1,.871-.191,1.467,1.467,0,0,1,.162.01c.059.006.125.016.2.029Z" transform="translate(-653.541 -321.344)" fill="#f2f2f2"/>
      <path id="Path_425" data-name="Path 425" d="M786.06,323.855a1.866,1.866,0,0,1,.636-.706,1.631,1.631,0,0,1,.872-.228,1.242,1.242,0,0,1,1.041.473,2.152,2.152,0,0,1,.366,1.344v2.607h-.713v-2.584a1.567,1.567,0,0,0-.22-.922.777.777,0,0,0-.671-.3,1.1,1.1,0,0,0-.871.366,1.465,1.465,0,0,0-.32,1v2.441h-.713v-2.584a1.566,1.566,0,0,0-.22-.923.787.787,0,0,0-.679-.3,1.086,1.086,0,0,0-.864.368,1.468,1.468,0,0,0-.321,1v2.441h-.713v-4.319h.713v.671a1.5,1.5,0,0,1,1.389-.776,1.326,1.326,0,0,1,.8.239A1.394,1.394,0,0,1,786.06,323.855Z" transform="translate(-657.475 -321.344)" fill="#f2f2f2"/>
    </g>
  </g>
</svg>
