<svg xmlns="http://www.w3.org/2000/svg" width="21" height="29" viewBox="0 0 21 29"><defs><style>.a{fill:#495057;}</style></defs><g transform="translate(-89.994 -33.997)"><path class="a" d="M106.145,34.148A.489.489,0,0,0,105.78,34H90.473a.461.461,0,0,0-.345.144.492.492,0,0,0-.134.359V62.494a.492.492,0,0,0,.134.359.461.461,0,0,0,.345.144h20.041a.461.461,0,0,0,.345-.144.492.492,0,0,0,.134-.359V39.587a.508.508,0,0,0-.128-.357Zm.168,1.65,3.014,3.294h-3.014ZM91.006,61.952V35.043H105.3v4.545a.518.518,0,0,0,.479.55h4.2V61.952Z" transform="translate(0)"/><path class="a" d="M155.434,178.891H142.355a.5.5,0,1,0,0,1.009h13.079a.5.5,0,1,0,0-1.009Zm-13.586-2.208a.506.506,0,0,0,.507.5h7.577a.5.5,0,1,0,0-1.009h-7.577A.506.506,0,0,0,141.848,176.683Zm13.373-2.882V168.38a.507.507,0,0,0-1.013,0V173.8a.507.507,0,0,0,1.013,0Zm-2.85,0v-1.892a.507.507,0,0,0-1.013,0V173.8a.507.507,0,0,0,1.013,0Zm-2.787,0v-3.222a.507.507,0,0,0-1.013,0V173.8a.507.507,0,0,0,1.013,0Zm-2.787,0v-.923a.507.507,0,0,0-1.013,0v.923a.507.507,0,0,0,1.013,0Zm-2.85,0v-2.094a.507.507,0,0,0-1.013,0V173.8a.507.507,0,0,0,1.013,0Zm10.707-9.929a1.562,1.562,0,0,0-1.519,1.944l-.808.441a1.569,1.569,0,0,0-2.775.53l-1.2-.121a1.568,1.568,0,0,0-2.792.652l-.943.77a1.557,1.557,0,1,0,.448,1.091c0-.049,0-.1-.007-.146l.723-.591a1.567,1.567,0,0,0,2.882-.732l.967.1a1.568,1.568,0,0,0,3-.568l1.059-.578a1.563,1.563,0,1,0,.963-2.791ZM143.5,169.729a.551.551,0,1,1,.554-.551A.552.552,0,0,1,143.5,169.729Zm3.6-1.577a.551.551,0,1,1,.554-.551.552.552,0,0,1-.554.551Zm3.965-.42a.551.551,0,1,1,.554-.551.552.552,0,0,1-.554.551Zm3.587-1.75a.551.551,0,1,1,.554-.551.552.552,0,0,1-.554.551Z" transform="translate(-48.584 -120.687)"/></g></svg>