<svg xmlns="http://www.w3.org/2000/svg" width="26" height="22" viewBox="0 0 26 22"><defs><style>.a{fill:#495057;}</style></defs><g transform="translate(-2.95 -7.68)"><path class="a" d="M15.4,40.278A2.479,2.479,0,1,0,12.92,37.8,2.479,2.479,0,0,0,15.4,40.278Zm0-4.068a1.584,1.584,0,1,1-1.584,1.584A1.584,1.584,0,0,1,15.4,36.211Z" transform="translate(-5.508 -15.096)"/><path class="a" d="M3.366,29.338l1.692.21a5.084,5.084,0,0,0,.327.792l-1.07,1.343a.448.448,0,0,0,.036.591L5.6,33.522a.448.448,0,0,0,.591.036l1.343-1.047a5.034,5.034,0,0,0,.792.327l.21,1.692a.448.448,0,0,0,.448.394h1.79a.448.448,0,0,0,.448-.394l.21-1.692a5.079,5.079,0,0,0,.792-.327l1.343,1.047a.448.448,0,0,0,.6-.031l1.249-1.249a.448.448,0,0,0,.036-.591L14.4,30.345a5.057,5.057,0,0,0,.327-.792l1.674-.215a.448.448,0,0,0,.394-.448V27.1a.448.448,0,0,0-.394-.448l-1.692-.21a5.057,5.057,0,0,0-.327-.792l1.047-1.343a.448.448,0,0,0-.036-.591L14.16,22.491a.448.448,0,0,0-.591-.036L12.227,23.5a5.079,5.079,0,0,0-.8-.354l-.21-1.692a.448.448,0,0,0-.448-.394H8.982a.448.448,0,0,0-.448.394l-.192,1.692a5.034,5.034,0,0,0-.792.327L6.208,22.429a.448.448,0,0,0-.591.036L4.373,23.74a.448.448,0,0,0-.058.591l1.047,1.343a5.084,5.084,0,0,0-.327.792l-1.692.21a.448.448,0,0,0-.394.448v1.79a.448.448,0,0,0,.416.425Zm.5-1.821,1.593-.2a.448.448,0,0,0,.38-.336,4.162,4.162,0,0,1,.448-1.119.448.448,0,0,0-.031-.506l-.985-1.266.694-.694,1.266.985a.448.448,0,0,0,.506.031,4.166,4.166,0,0,1,1.119-.448.448.448,0,0,0,.336-.38l.2-1.593h.98L10.58,23.6a.448.448,0,0,0,.336.38,4.166,4.166,0,0,1,1.119.448.448.448,0,0,0,.506-.031l1.266-.985.694.694-.985,1.266a.448.448,0,0,0-.031.506,4.153,4.153,0,0,1,.448,1.119.448.448,0,0,0,.38.336l1.593.2v.989l-1.593.2a.448.448,0,0,0-.38.336,4.153,4.153,0,0,1-.448,1.119.448.448,0,0,0,.031.506l.985,1.266-.694.694-1.266-.985a.448.448,0,0,0-.506-.031,4.166,4.166,0,0,1-1.119.448.448.448,0,0,0-.336.38l-.2,1.593H9.4l-.2-1.593a.448.448,0,0,0-.336-.38,4.166,4.166,0,0,1-1.119-.448.448.448,0,0,0-.506.031l-1.266.985-.689-.72.985-1.266a.448.448,0,0,0,.031-.506,4.162,4.162,0,0,1-.448-1.119.448.448,0,0,0-.38-.336l-1.607-.175ZM22.009,17.6a2.479,2.479,0,1,0,2.479,2.479A2.479,2.479,0,0,0,22.009,17.6Zm0,4.068a1.584,1.584,0,1,1,1.584-1.584A1.584,1.584,0,0,1,22.009,21.668Z" transform="translate(0 -5.243)"/><path class="a" d="M43.545,13.269l-1.692-.21a5.092,5.092,0,0,0-.327-.792l1.047-1.343a.448.448,0,0,0-.036-.591L41.29,9.085a.448.448,0,0,0-.591-.036L39.357,10.1a5.079,5.079,0,0,0-.788-.336l-.224-1.687A.448.448,0,0,0,37.9,7.68h-1.79a.448.448,0,0,0-.448.394l-.21,1.692a5.079,5.079,0,0,0-.792.327L33.315,9.045a.448.448,0,0,0-.591.036l-1.249,1.249a.448.448,0,0,0-.036.591l1.047,1.343a5,5,0,0,0-.327.792l-1.647.215a.448.448,0,0,0-.394.448v1.79a.448.448,0,0,0,.394.448l1.692.21a5,5,0,0,0,.327.792L31.485,18.3a.448.448,0,0,0,.036.591l1.231,1.226a.448.448,0,0,0,.591.036L34.685,19.1a5.079,5.079,0,0,0,.8.354l.21,1.692a.448.448,0,0,0,.448.394h1.79a.448.448,0,0,0,.448-.394l.192-1.692a5.062,5.062,0,0,0,.792-.327L40.7,20.179a.448.448,0,0,0,.591-.036l1.249-1.249a.448.448,0,0,0,.054-.618l-1.047-1.343a5.084,5.084,0,0,0,.327-.792l1.692-.21a.448.448,0,0,0,.394-.448v-1.79A.448.448,0,0,0,43.545,13.269Zm-.5,1.821-1.593.2a.448.448,0,0,0-.38.336,4.162,4.162,0,0,1-.448,1.119.448.448,0,0,0,.031.506l.985,1.266-.694.694-1.266-.985a.448.448,0,0,0-.506-.031,4.162,4.162,0,0,1-1.119.448.448.448,0,0,0-.336.38l-.2,1.593h-.989l-.2-1.6a.448.448,0,0,0-.336-.38,4.166,4.166,0,0,1-1.119-.448.448.448,0,0,0-.506.031L33.1,19.2l-.694-.694.985-1.266a.448.448,0,0,0,.031-.506,4.139,4.139,0,0,1-.448-1.119.448.448,0,0,0-.38-.336l-1.593-.2v-.993l1.593-.2a.448.448,0,0,0,.38-.336,4.13,4.13,0,0,1,.448-1.119.448.448,0,0,0-.031-.506l-.985-1.266.694-.694,1.266.985a.448.448,0,0,0,.506.031A4.166,4.166,0,0,1,36,10.54a.448.448,0,0,0,.336-.38l.2-1.593h.98l.2,1.593a.448.448,0,0,0,.336.38,4.166,4.166,0,0,1,1.119.448.448.448,0,0,0,.506-.031l1.266-.985.694.694-.985,1.266a.448.448,0,0,0-.031.506,4.157,4.157,0,0,1,.448,1.119.448.448,0,0,0,.38.336l1.6.2Z" transform="translate(-15.011 0)"/></g></svg>