<svg xmlns="http://www.w3.org/2000/svg" width="75.32" height="23.434" viewBox="0 0 75.32 23.434">
  <g id="Group_261" data-name="Group 261" transform="translate(0 0)">
    <path id="Path_517" data-name="Path 517" d="M267.989,104.545c2.115,7.6,4.1,14.72,4.527,17.4h.043c.647-3.67,2.993-10.959,4.936-17.434h6.173l-8.088,23.432h-6.475L261.3,104.545Z" transform="translate(-261.298 -104.507)" fill="#575757"/>
    <path id="Path_518" data-name="Path 518" d="M381.406,111.216c0-2.244,0-4.7-.043-6.6h6.087l.173,2.234c2.3-1.716,7.781-.8,7.781-.8a10.45,10.45,0,0,0-3.1,4.344s-4.681-.317-4.681,3.177v14.438h-6.216Z" transform="translate(-338.271 -104.575)" fill="#575757"/>
    <path id="Path_519" data-name="Path 519" d="M329.551,104.612c-6.994,0-9.454,4.49-10.231,7.209h6.173c.6-1.338,1.338-2.374,3.928-2.374,3.065,0,4.49,2.72,4.49,5.526H319.148a13.044,13.044,0,0,0-.086,1.9c0,5.569,2.634,11.137,10.274,11.137a10.628,10.628,0,0,0,6.839-2.17v2.17h3.953V115.965C340.128,110.094,336.933,104.612,329.551,104.612Zm-.173,18.95c-3.022,0-4.058-2.2-4.1-4.792h8.5C333.523,121.533,332.314,123.562,329.378,123.562Z" transform="translate(-298.33 -104.575)" fill="#575757"/>
    <path id="Path_520" data-name="Path 520" d="M422.954,104.612c-6.994,0-9.454,4.49-10.231,7.209H418.9c.6-1.338,1.338-2.374,3.929-2.374,3.065,0,4.49,2.72,4.49,5.526H412.55a13.085,13.085,0,0,0-.086,1.9c0,5.569,2.633,11.137,10.274,11.137a10.626,10.626,0,0,0,6.839-2.17v2.17h3.953V115.965C433.53,110.094,430.336,104.612,422.954,104.612Zm-.173,18.95c-3.022,0-4.058-2.2-4.1-4.792h8.5C426.925,121.533,425.717,123.562,422.781,123.562Z" transform="translate(-358.21 -104.575)" fill="#575757"/>
  </g>
</svg>
